<svg class="icon" style="width: 1em;height: 1em;vertical-align: middle;fill: currentColor;overflow: hidden;" viewBox="0 0 1024 1024" version="1.1" xmlns="http://www.w3.org/2000/svg" p-id="809"><path d="M919 63.9H103.3c-22 0-40 18-40 40v815.7c0 22 18 40 40 40H919c22 0 40-18 40-40V103.9c0-22-18-40-40-40z m-73.4 260.8l-427.5 417c-5.8 5.7-13.4 8.5-20.9 8.5-7.7 0-15.4-2.9-21.3-8.8L176.5 541.2c-11.7-11.7-11.7-30.7 0.1-42.4 11.7-11.7 30.7-11.7 42.4 0.1L397.5 678l406.2-396.2c11.9-11.6 30.9-11.3 42.4 0.5 11.6 11.8 11.3 30.8-0.5 42.4z" fill="#8a8a8a" p-id="810"></path></svg>