<svg class="icon" style="width: 1em;height: 1em;vertical-align: middle;fill: currentColor;overflow: hidden;" viewBox="0 0 1024 1024" version="1.1" xmlns="http://www.w3.org/2000/svg" p-id="963"><path d="M296.4 559.4h-62.6V279.7h-49.1c-21.1 13-44.1 21.6-77.4 27.9v41h60.3v210.8H96v53.5h200.4zM486.8 325.6c31.5 0 50 20.3 50 54 0 51.4-53.6 114-144.1 195.1v38.2h223.4v-55.8h-72.6c-15.3 0-37.3 1.8-54 3.6 60.8-59.4 110.8-124.3 110.8-184.6 0-62.2-41.9-102.7-104.9-102.7-45.5 0-75.3 18-105.9 50.4l36.1 36c16.6-18.4 36.9-34.2 61.2-34.2zM804.6 565.2c-30.2 0-54.5-14.8-74.3-34.2l-31.1 41.9c23.4 26.6 59 46.4 111.7 46.4 63.5 0 117.1-35.6 117.1-96.9 0-43.7-28.8-71.6-66.6-82v-2.2c35.5-14 55.8-40.1 55.8-76.1 0-57.2-43.7-88.7-108.1-88.7-39.2 0-71.2 15.7-100 41l33.8 40.5c19.8-18 39.2-29.3 63.1-29.7 28.3 0.4 44.5 15.7 44.5 41.8 0 29.8-19.8 50.9-81 50.9v47.8c72.5 0 91.9 20.3 91.9 53.1 0 29.8-23 46.4-56.8 46.4zM895.2 684.9H128.8a32.9 32.9 0 0 0 0 65.7h766.4a32.9 32.9 0 0 0 0-65.7z" fill="#8a8a8a" p-id="964"></path></svg>