<svg class="icon" style="width: 1em;height: 1em;vertical-align: middle;fill: currentColor;overflow: hidden;" viewBox="0 0 1024 1024" version="1.1" xmlns="http://www.w3.org/2000/svg" p-id="903"><path d="M512 0C229.2224 0 0 229.239467 0 512c0 282.7776 229.239467 512 512 512 282.7776 0 512-229.239467 512-512S794.760533 0 512 0z m245.179733 478.1568l-213.333333 213.333333a42.5472 42.5472 0 0 1-30.1568 12.509867c-0.5632 0-1.092267-0.3072-1.672533-0.324267-0.5632 0.034133-1.092267 0.324267-1.672534 0.324267-10.922667 0-21.828267-4.164267-30.173866-12.509867l-213.333334-213.333333c-16.674133-16.657067-16.674133-43.6736 0-60.330667 16.674133-16.657067 43.656533-16.657067 60.330667 0L512 602.658133l184.832-184.832c16.674133-16.657067 43.6736-16.657067 60.330667 0 16.674133 16.657067 16.674133 43.6736 0.017066 60.330667z m0 0" fill="#8a8a8a" p-id="904"></path></svg>