<svg class="icon" style="width: 1em;height: 1em;vertical-align: middle;fill: currentColor;overflow: hidden;" viewBox="0 0 1024 1024" version="1.1" xmlns="http://www.w3.org/2000/svg" p-id="872"><path d="M285.1 324.4c0 125.1 101.4 226.4 226.4 226.4s226.4-101.4 226.4-226.4S636.5 97.9 511.5 97.9 285.1 199.3 285.1 324.4z" fill="#8a8a8a" p-id="873"></path><path d="M765.8 912.4c-78.7 13.3-295.4 13.3-448 4.8-92-4.8-144.1-15.7-161-78.7 0-121.1 99.3-291.8 219.2-291.8l94.4 29.1c26.6 4.8 53.3 4.8 79.9 0l100.5-29.1c121.1 0 219.2 171.9 219.2 291.8 2.3 50.9-34 63-104.2 73.9z" fill="#8a8a8a" p-id="874"></path></svg>